<svg xmlns="http://www.w3.org/2000/svg" height="68.114" width="47.642" viewBox="0 0 47.641998 68.114082"><path fill-rule="evenodd" clip-rule="evenodd" d="M47.638 60.446c0-7.84-4.529-16.396-4.529-16.396-1.768-3.518-3.736-7.496-8.022-9.854-.078-.039-.501-.238-.613-.325l-4.637-2.106-2.045-1.724c3.076-1.306 5.704-4.121 6.774-8.238.309-.026.578-.522.578-1.154v-.129c.192-.37.429-.893.643-1.637.245-.803 1.149-3.263.309-3.876-.37-.233-.659-.131-.87.258 0 0 1.115-6.088.27-8.683-1.929-6.694-17.699-8.52-17.699-4.377-6.747 1.909-5.507 8.316-4.571 13.172 0-.01-.459-.635-1.048-.044-.739.769.073 2.685.351 3.55.17.7.35 1.172.56 1.522-.039.067-.039.141-.039.243 0 .632.33 1.154.681 1.154h.026c1.092 4.271 3.409 6.933 6.149 8.212l-2.108 1.75-4.6 2.106c-.148.072-.558.301-.628.325-4.276 2.358-6.28 6.337-8.028 9.854 0 0-3.798 7.774-4.542 16.396v.281c0 2.573 2.217 4.64 4.931 4.64.212 0 .384 0 .601-.021 1.361-.222 2.561-.674 3.618-1.194l14.222 3.896c.021 0 .07.041.093.041h.111c.078.026.168.026.258.026.109 0 .158 0 .238-.026h.112c.02 0 .061-.041.1-.041l14.199-3.917c1.111.542 2.271.994 3.639 1.216.213.021.4.021.604.021 2.705 0 4.916-2.066 4.916-4.64-.004-.07-.004-.175-.004-.281z"/></svg>