<svg xmlns="http://www.w3.org/2000/svg" width="45" height="64" viewBox="0 0 45 64"><path d="M44.761 56.795c0-7.366-4.255-15.406-4.255-15.406-1.661-3.306-3.51-7.043-7.538-9.259-.073-.037-.471-.224-.576-.305l-4.357-1.979-1.922-1.62c2.89-1.227 5.36-3.872 6.365-7.74.29-.024.543-.491.543-1.084v-.121c.18-.348.403-.839.604-1.538.23-.755 1.08-3.066.29-3.642-.348-.219-.619-.123-.817.242 0 0 1.048-5.72.254-8.159-1.813-6.29-16.63-8.005-16.63-4.113-6.34 1.794-5.174 7.814-4.295 12.376 0-.009-.431-.597-.985-.041-.694.723.069 2.523.33 3.336.16.658.329 1.101.526 1.43-.037.063-.037.133-.037.228 0 .594.31 1.084.64 1.084h.024c1.026 4.013 3.203 6.514 5.778 7.716l-1.981 1.644-4.322 1.979c-.139.068-.524.283-.59.305-4.018 2.216-5.901 5.954-7.543 9.259 0 0-3.569 7.304-4.268 15.406v.264c0 2.418 2.083 4.36 4.633 4.36.199 0 .361 0 .565-.02 1.279-.209 2.406-.633 3.4-1.122l13.363 3.661c.02 0 .066.038.087.038h.104a.794.794 0 0 0 .242.024c.102 0 .148 0 .224-.024h.105c.019 0 .057-.038.094-.038l13.341-3.68c1.044.509 2.134.934 3.419 1.143.2.02.376.02.568.02 2.542 0 4.619-1.941 4.619-4.36-.004-.066-.004-.164-.004-.264z"/></svg>