<svg xmlns="http://www.w3.org/2000/svg" height="409.7" width="508" viewBox="0 0 508 409.70001"><path d="M508 0H0v344.1h150.6l-32.8 65.6h272.3l-32.8-65.6H508V0zm-16.4 16.3v245.8H16.4V16.3h475.2zm-128 377H144.4l24.6-49.2h170.1l24.5 49.2zm-14.4-65.6H16.4v-49.2h475.2v49.2H349.2z"/><path d="M245.8 294.9h16.4v16.4h-16.4zm32.8 0H295v16.4h-16.4zm-65.6 0h16.4v16.4H213zm-16.4-254H49.2v196.6h147.5V40.9zm-16.3 180.3H65.5V57.3h114.7v163.9zm49.1-163.9h229.4v16.4H229.4zm0 73.8h229.4v16.4H229.4zm0 73.7h229.4v16.4H229.4z"/></svg>