<svg xmlns="http://www.w3.org/2000/svg" width="79" height="64" viewBox="0 0 79 64"><path d="M79.356 0H0v53.752h23.526L18.402 64h42.536l-5.124-10.248h23.541V0zm-2.562 2.546v38.397H2.562V2.546h74.232zM56.799 61.438H22.557l3.843-7.686h26.572l3.827 7.686zm-2.25-10.247H2.562v-7.686h74.232v7.686H54.549z"/><path d="M38.397 46.067h2.562v2.562h-2.562v-2.562zm5.124 0h2.562v2.562h-2.562v-2.562zm-10.248 0h2.562v2.562h-2.562v-2.562zM30.711 6.389H7.685V37.1h23.041V6.389zm-2.546 28.165H10.232V8.951H28.15v25.603zm7.67-25.603H71.67v2.562H35.835V8.951zm0 11.528H71.67v2.562H35.835v-2.562zm0 11.513H71.67v2.562H35.835v-2.562z"/></svg>