<svg xmlns="http://www.w3.org/2000/svg" width="64" height="64" viewBox="0 0 64 64"><path d="M59.109 23.003l-28-18.667a2 2 0 0 0-2.219 0l-28 18.667a2 2 0 0 0-.891 1.664v18.667c0 .669.334 1.293.891 1.664l28 18.667a1.998 1.998 0 0 0 2.218 0l28-18.667a2 2 0 0 0 .891-1.664V24.667c0-.669-.334-1.293-.891-1.664zM30 40.93L19.605 34 30 27.07 40.395 34 30 40.93zm2-17.334V9.737l22.394 14.93L44 31.597l-12-8zm-4 0l-12 8-10.395-6.93L28 9.736v13.859zM12.395 34L4 39.596V28.403l8.395 5.596zM16 36.404l12 8v13.859L5.605 43.333 16 36.403zm16 8l12-8 10.395 6.93L32 58.264V44.405zM47.605 34L56 28.404v11.193l-8.395-5.596z"/></svg>