<svg xmlns="http://www.w3.org/2000/svg" width="82" height="64" viewBox="0 0 82 64"><path d="M80.762 0H1.524C.683 0 0 .683 0 1.524v54.857c0 .843.683 1.524 1.524 1.524h79.238c.843 0 1.524-.681 1.524-1.524V1.524C82.286.683 81.605 0 80.762 0zm-1.524 54.857H3.047V3.048h76.191v51.809zm-16.762 6.095H22.857a1.524 1.524 0 1 0 0 3.048h39.619c.843 0 1.524-.681 1.524-1.524s-.681-1.524-1.524-1.524z"/><path d="M31.198 39.392a1.527 1.527 0 0 0 1.483.067l18.286-9.143a1.525 1.525 0 0 0 0-2.728l-18.286-9.143a1.524 1.524 0 0 0-2.205 1.364v18.286c0 .529.274 1.018.722 1.297zm2.326-17.117l13.355 6.677-13.355 6.677V22.274z"/></svg>