<svg xmlns="http://www.w3.org/2000/svg" width="34" height="64" viewBox="0 0 34 64"><path d="M34.138 3.092a1.36 1.36 0 0 0-.873-1.056C30.467 1.015 26.769.003 22.8 0c-3.113-.001-6.412.634-9.478 2.422a11.871 11.871 0 0 0-3.687 3.31C8.241 7.651 7.499 9.859 7.08 12.1c-.337 1.813-.465 3.66-.533 5.45-.799.019-1.705.025-2.53.025-.721 0-1.382-.004-1.862-.009l-.569-.006a164.29 164.29 0 0 0-.208-.003 1.375 1.375 0 0 0-.976.392 1.36 1.36 0 0 0-.402.973l.054 9.017c.005.751.613 1.412 1.363 1.412h.947c1.328 0 3.806-.057 5.711-.02.282 6.194.348 15.476.348 22.679 0 3.036-.013 5.682-.023 7.588-.007.95-.012 1.706-.017 2.23l-.007.805A1.356 1.356 0 0 0 9.74 64l12.069-.061c.363-.002.704-.147.959-.406s.395-.602.391-.966c0 0-.063-7.421-.137-15.426-.063-6.884-.133-14.19-.173-17.592.745-.013 1.612-.018 2.456-.017a323.475 323.475 0 0 1 3.832.024 1.36 1.36 0 0 0 1.377-1.354l.015-8.352c.001-.363-.142-.828-.399-1.084s-.601-.517-.965-.517h-.451c-.289 0-.699.123-1.192.123-1.514 0-3.804.054-5.616.023.032-.926.116-1.715.253-2.413.131-.68.313-1.23.526-1.684.16-.34.339-.608.53-.832.29-.336.605-.564 1.009-.733.404-.167.912-.267 1.563-.268 1.155-.003 2.742.338 4.729 1.106.015.006.031.008.046.014s.029.014.045.019c.029.009.058.01.087.017.046.011.091.021.137.027s.088.007.131.009c.045.001.089.002.134-.001s.087-.009.129-.017a1.093 1.093 0 0 0 .25-.068c.042-.014.083-.031.122-.05s.074-.04.111-.062a1.066 1.066 0 0 0 .207-.156 1.232 1.232 0 0 0 .177-.197c.026-.036.053-.073.076-.112a1.71 1.71 0 0 0 .062-.121c.013-.027.029-.052.04-.081.007-.015.009-.032.014-.049.004-.014.014-.027.018-.043.274-.903.745-2.417 1.148-4.015.202-.801.389-1.624.527-2.417s.231-1.552.231-2.259a5.932 5.932 0 0 0-.069-.918zm-11.384 7.337a5.359 5.359 0 0 0-1.727 1.428c-.706.888-1.16 1.977-1.446 3.216-.285 1.242-.407 2.649-.407 4.235l.003.494c.012.725.59 1.113 1.315 1.137 1.931.061 5.094-.127 7.027-.127h.29l-.01 5.817c-.694-.005-1.581.089-2.497.089a82.81 82.81 0 0 0-3.898.109c-.732.037-1.3.669-1.29 1.401.037 2.319.119 10.924.192 18.926.037 4.002.071 7.865.096 10.72l.029 3.352-9.331.05c.014-1.799.034-5.212.034-9.301 0-7.73-.073-17.851-.413-24.105a1.352 1.352 0 0 0-1.306-1.282c-1.838-.065-4.894-.077-6.655-.078l-.038-6.225c.384.003.827.005 1.294.005 1.327-.001 2.849-.015 3.923-.077a1.356 1.356 0 0 0 1.278-1.318c.073-2.856.236-5.756.995-8.222.378-1.235.898-2.358 1.616-3.346a9.175 9.175 0 0 1 2.859-2.56c2.573-1.498 5.358-2.052 8.112-2.053 3.135-.003 6.201.733 8.681 1.573-.02.424-.083.948-.182 1.516-.183 1.049-.479 2.242-.78 3.335-.138.5-.277.977-.407 1.416-1.601-.518-3.027-.797-4.327-.8-1.107-.001-2.135.208-3.032.675z"/></svg>