<svg xmlns="http://www.w3.org/2000/svg" height="74.953" width="40.061" viewBox="0 0 40.061039 74.953018"><path d="M39.98 3.621a1.595 1.595 0 0 0-1.022-1.237C35.681 1.188 31.35.003 26.702 0c-3.646-.001-7.509.743-11.1 2.837a13.925 13.925 0 0 0-4.318 3.876c-1.633 2.247-2.502 4.833-2.992 7.458-.395 2.123-.544 4.286-.624 6.383-.936.022-1.997.029-2.963.029-.845 0-1.618-.005-2.181-.011l-.666-.007a34.54 34.54 0 0 0-.244-.004 1.611 1.611 0 0 0-1.143.459A1.596 1.596 0 0 0 0 22.159l.063 10.56c.006.88.718 1.654 1.596 1.654h1.109c1.555 0 4.457-.067 6.688-.023.33 7.254.408 18.125.408 26.56 0 3.556-.015 6.655-.027 8.887-.008 1.113-.014 1.998-.02 2.612l-.008.943a1.586 1.586 0 0 0 1.598 1.601l14.134-.071a1.578 1.578 0 0 0 1.123-.475c.299-.302.462-.705.458-1.131 0 0-.074-8.691-.161-18.066-.074-8.062-.156-16.618-.203-20.603.872-.015 1.888-.021 2.876-.02a380.293 380.293 0 0 1 4.113.024l.375.004a1.59 1.59 0 0 0 1.612-1.586l.018-9.781c.001-.425-.166-.97-.467-1.269-.3-.299-.704-.605-1.13-.605h-.528c-.338 0-.819.144-1.396.144-1.773 0-4.455.063-6.577.027.038-1.085.136-2.008.296-2.826.154-.796.366-1.441.616-1.972.188-.398.397-.712.621-.975a3.04 3.04 0 0 1 1.182-.858c.473-.196 1.068-.313 1.83-.314 1.353-.004 3.211.396 5.538 1.295.017.007.036.009.054.016.019.006.034.017.053.022.034.011.068.012.102.02.054.013.107.025.16.032.052.006.103.008.153.01.053.001.104.002.157-.001.052-.004.102-.011.151-.02a1.394 1.394 0 0 0 .293-.079 1.193 1.193 0 0 0 .273-.132 1.135 1.135 0 0 0 .242-.183c.04-.036.078-.072.112-.111.034-.038.064-.078.095-.119.031-.042.062-.085.089-.131.026-.044.049-.093.072-.142.015-.032.034-.061.047-.095.008-.018.01-.037.017-.057.005-.017.016-.032.021-.05.321-1.058.872-2.831 1.345-4.702a39.77 39.77 0 0 0 .617-2.831c.161-.93.27-1.818.271-2.646a6.96 6.96 0 0 0-.081-1.075zm-13.332 8.593a6.262 6.262 0 0 0-2.022 1.672c-.827 1.04-1.359 2.315-1.693 3.766-.334 1.454-.477 3.102-.477 4.96 0 .19.002.383.004.578.014.849.691 1.304 1.54 1.332 2.261.072 5.966-.149 8.23-.149h.34l-.012 6.813c-.813-.006-1.852.104-2.924.104-1.693 0-3.446.073-4.565.128-.857.043-1.523.783-1.511 1.641.043 2.716.139 12.793.225 22.165l.113 12.555.034 3.926-10.928.058c.017-2.107.04-6.104.04-10.893 0-9.053-.086-20.906-.484-28.23a1.585 1.585 0 0 0-1.53-1.502c-2.153-.076-5.731-.09-7.794-.091l-.044-7.29c.45.003.968.006 1.516.006 1.554-.001 3.336-.017 4.595-.09a1.59 1.59 0 0 0 1.497-1.544c.086-3.345.276-6.741 1.165-9.629.443-1.446 1.052-2.762 1.893-3.919.843-1.156 1.914-2.162 3.348-2.998 3.013-1.754 6.275-2.403 9.5-2.404 3.671-.003 7.262.858 10.167 1.842-.023.497-.097 1.11-.213 1.775-.214 1.228-.561 2.626-.914 3.906a88.05 88.05 0 0 1-.477 1.658c-1.875-.607-3.545-.934-5.068-.937-1.296-.001-2.5.244-3.551.791z"/></svg>