<svg xmlns="http://www.w3.org/2000/svg" height="74.324" width="75.746" viewBox="0 0 75.746002 74.323999"><path d="M799.9 153.11l-36.568-26.93-36.568 26.93-.946-1.287 37.516-27.629 37.516 27.629-.95 1.287zm-5.427 1.444l-31.141-22.934-31.141 22.934v42.62h22.559v-23.053h17.162v23.053h22.561v-42.62zm-20.959 17.966h-20.362v23.053h-19.36v-40.21l29.541-21.757 29.541 21.757v40.21h-19.359l-.001-23.053zM74.086 30.146L37.873 3.478 1.66 30.146 0 27.891 37.873 0l37.873 27.891-1.66 2.255zm-4.471.655L37.873 7.426 6.131 30.801v43.523h23.763V51.271h15.961v23.053h23.762l-.002-43.523zM48.654 48.473H27.092v23.053H8.933V32.217l28.94-21.313 28.941 21.313v39.308h-18.16V48.473z"/></svg>