<svg xmlns="http://www.w3.org/2000/svg" height="72.1" width="72.1" viewBox="0 0 72.099998 72.099998"><path d="M38.7 55.5l-8.8 8.8c-2.6 2.6-6 4-9.6 4s-7-1.4-9.6-4l-2.8-2.8c-2.6-2.6-4-6-4-9.6s1.4-7 4-9.6l11.7-11.7c5.3-5.3 13.9-5.3 19.2 0l5.7 5.7c.8.8 2 .8 2.8 0s.8-2 0-2.8l-5.7-5.7c-6.9-6.9-18-6.9-24.9 0L5.1 39.4C1.8 42.7 0 47.1 0 51.8s1.8 9.1 5.1 12.4L7.9 67c3.3 3.3 7.7 5.1 12.4 5.1s9.1-1.8 12.4-5.1l8.8-8.8c.8-.8.8-2 0-2.8-.7-.7-2-.7-2.8.1z"/><path d="M64.2 5.1C60.9 1.8 56.5 0 51.8 0s-9.1 1.8-12.4 5.1L32 12.5c-.8.8-.8 2 0 2.8s2 .8 2.8 0l7.4-7.4c2.6-2.6 6-4 9.6-4s7 1.4 9.6 4l2.8 2.8c2.6 2.6 4 6 4 9.6s-1.4 7-4 9.6L54 40.2c-2.6 2.6-6 4-9.6 4s-7-1.4-9.6-4l-5.7-5.7c-.8-.8-2-.8-2.8 0s-.8 2 0 2.8L32 43c3.3 3.3 7.7 5.1 12.4 5.1s9.1-1.8 12.4-5.1L67 32.8c3.3-3.3 5.1-7.7 5.1-12.4S70.3 11.3 67 8l-2.8-2.9z"/></svg>