<svg xmlns="http://www.w3.org/2000/svg" width="64" height="64" viewBox="0 0 64 64"><path d="M34.352 49.265l-7.811 7.811c-2.308 2.308-5.326 3.551-8.521 3.551s-6.214-1.243-8.521-3.551l-2.485-2.485c-2.308-2.308-3.551-5.326-3.551-8.522s1.243-6.214 3.551-8.522L17.4 27.161c4.705-4.705 12.338-4.705 17.043 0l5.06 5.06c.71.71 1.775.71 2.485 0s.71-1.775 0-2.485l-5.06-5.06a15.59 15.59 0 0 0-22.103 0L4.528 34.973C1.599 37.902.001 41.808.001 45.98s1.598 8.078 4.527 11.007l2.485 2.485c2.929 2.929 6.835 4.527 11.007 4.527s8.078-1.598 11.007-4.527l7.811-7.811c.71-.71.71-1.775 0-2.485-.621-.621-1.775-.621-2.485.089z"/><path d="M56.987 4.527C54.058 1.598 50.152 0 45.98 0s-8.078 1.598-11.007 4.527l-6.569 6.569c-.71.71-.71 1.775 0 2.485s1.775.71 2.485 0l6.569-6.569c2.308-2.308 5.326-3.551 8.521-3.551s6.214 1.243 8.522 3.551l2.485 2.485c2.308 2.308 3.551 5.326 3.551 8.522s-1.243 6.214-3.551 8.521l-9.054 9.143c-2.308 2.308-5.326 3.551-8.522 3.551s-6.214-1.243-8.521-3.551l-5.06-5.06c-.71-.71-1.775-.71-2.485 0s-.71 1.775 0 2.485l5.06 5.06c2.929 2.929 6.835 4.527 11.007 4.527s8.078-1.598 11.007-4.527l9.054-9.054c2.929-2.929 4.527-6.835 4.527-11.007S62.401 10.029 59.472 7.1l-2.485-2.574z"/></svg>