<svg xmlns="http://www.w3.org/2000/svg" width="76" height="64" viewBox="0 0 76 64"><path d="M70.095 1.592h-1.478a9.49 9.49 0 0 0-6.759 2.801l-6.099 6.099-2.06-2.06-2.252 2.252 6.372 6.372 2.252-2.252-2.06-2.06 6.099-6.099a6.323 6.323 0 0 1 4.507-1.868h1.478a3.191 3.191 0 0 1 3.188 3.188v3.188a3.191 3.191 0 0 1-3.188 3.188v3.188a6.381 6.381 0 0 0 6.372-6.372V7.966a6.381 6.381 0 0 0-6.372-6.372z"/><path d="M62.596 12.279l2.72 2.72v12.633a4.74 4.74 0 0 1-1.4 3.379L34.579 60.345c-.601.604-1.651.604-2.252 0L8.16 36.174a1.598 1.598 0 0 1 0-2.252L37.494 4.588a4.82 4.82 0 0 1 3.379-1.4h12.633l2.72 2.72 2.252-2.252L54.826.004H40.874a7.914 7.914 0 0 0-5.631 2.333L5.906 31.671a4.79 4.79 0 0 0 0 6.759l24.167 24.171c.903.903 2.104 1.4 3.379 1.4s2.476-.498 3.379-1.4l29.334-29.334a7.916 7.916 0 0 0 2.333-5.635V13.68l-3.652-3.652-2.248 2.252zM7.709 27.808l-4.186-6.453a1.591 1.591 0 0 1 .634-2.148l22.067-11.42-1.467-2.83L2.676 16.388a4.736 4.736 0 0 0-2.322 2.83c-.372 1.22-.243 2.513.424 3.755l4.256 6.567 2.675-1.732z"/><path d="M3.188 4.78c0-.881.715-1.592 1.592-1.592h27.082V0H4.78A4.786 4.786 0 0 0 0 4.78v9.559h3.188V4.78z"/></svg>