<svg xmlns="http://www.w3.org/2000/svg" height="17.367" width="20.75" viewBox="0 0 20.75 17.367001"><path d="M19.021.432h-.401c-.693 0-1.345.27-1.834.76l-1.655 1.655-.559-.559-.611.611 1.729 1.729.611-.611-.559-.559 1.655-1.655a1.716 1.716 0 0 1 1.223-.507h.401c.477 0 .865.388.865.865v.865a.866.866 0 0 1-.865.865v.865c.953 0 1.729-.776 1.729-1.729v-.866c0-.953-.776-1.729-1.729-1.729z"/><path d="M16.986 3.332l.738.738v3.428c0 .347-.135.673-.38.917l-7.961 7.96a.44.44 0 0 1-.611 0L2.214 9.816a.433.433 0 0 1 0-.611l7.96-7.96c.241-.241.576-.38.917-.38h3.428l.738.738.611-.611-.991-.991h-3.786c-.577 0-1.12.225-1.528.633l-7.961 7.96a1.3 1.3 0 0 0 0 1.834l6.558 6.559c.245.245.571.38.917.38s.672-.135.917-.38l7.96-7.96c.408-.408.633-.951.633-1.529V3.712l-.991-.991-.61.611zM2.092 7.546L.956 5.795a.432.432 0 0 1 .172-.583l5.988-3.099-.398-.768L.726 4.447c-.306.163-.53.436-.63.768-.101.331-.066.682.115 1.019l1.155 1.782.726-.47z"/><path d="M.865 1.297c0-.239.194-.432.432-.432h7.349V0H1.297C.582 0 0 .582 0 1.297v2.594h.865V1.297z"/></svg>