<svg xmlns="http://www.w3.org/2000/svg" width="77" height="64" viewBox="0 0 77 64"><path d="M74.43 7.321a4.918 4.918 0 0 0-1.655-5.247 4.889 4.889 0 0 0-3.068-1.073 4.88 4.88 0 0 0-2.506.689 22.524 22.524 0 0 1-4.839 2.143A18.676 18.676 0 0 0 51.048.001c-9.404 0-17.195 7.015-18.423 16.085A34.072 34.072 0 0 1 13.376 4.315a4.913 4.913 0 0 0-3.813-1.816c-.123 0-.254.009-.385.017a4.924 4.924 0 0 0-3.865 2.427 18.555 18.555 0 0 0-2.523 9.352c0 2.223.394 4.384 1.123 6.404a4.953 4.953 0 0 0-1.24 3.271c0 4.876 1.841 9.359 4.907 12.727-.189.84-.16 1.729.116 2.58a18.547 18.547 0 0 0 5.513 8.366 22.729 22.729 0 0 1-7.72.399 4.898 4.898 0 0 0-5.2 3.237 4.92 4.92 0 0 0 1.969 5.799 43.718 43.718 0 0 0 23.618 6.921c27.182 0 43.518-21.878 43.811-43.233a32.582 32.582 0 0 0 5.806-6.473 4.887 4.887 0 0 0 .993-2.966c0-1.648-.813-3.11-2.058-4.007zm-9.702 11.086c.031.585.043 1.175.043 1.768 0 18.065-13.75 38.894-38.894 38.894a38.712 38.712 0 0 1-20.958-6.141 29.64 29.64 0 0 0 3.261.193 27.429 27.429 0 0 0 16.98-5.857c-5.989-.106-11.033-4.063-12.774-9.493a13.628 13.628 0 0 0 6.169-.233c-6.254-1.262-10.968-6.78-10.968-13.41v-.17a13.638 13.638 0 0 0 6.194 1.705 13.67 13.67 0 0 1-6.077-11.38c0-2.504.674-4.85 1.851-6.869 6.737 8.27 16.813 13.71 28.176 14.28a13.545 13.545 0 0 1-.351-3.117c0-7.543 6.119-13.663 13.665-13.663 3.935 0 7.489 1.66 9.982 4.311a27.264 27.264 0 0 0 8.68-3.315 13.735 13.735 0 0 1-6.009 7.56 27.076 27.076 0 0 0 7.848-2.153 27.444 27.444 0 0 1-6.817 7.089z"/></svg>