<svg xmlns="http://www.w3.org/2000/svg" height="36.859" width="44.051" viewBox="0 0 44.051224 36.859001"><path d="M42.866 4.216a2.833 2.833 0 0 0-.953-3.022 2.818 2.818 0 0 0-1.767-.618c-.498 0-.996.13-1.443.397-.888.521-1.817.939-2.787 1.234A10.756 10.756 0 0 0 29.4 0c-5.416 0-9.903 4.04-10.61 9.264A19.624 19.624 0 0 1 7.704 2.485a2.828 2.828 0 0 0-2.196-1.046c-.07 0-.146.005-.222.01A2.835 2.835 0 0 0 3.06 2.847a10.686 10.686 0 0 0-1.453 5.386c0 1.28.227 2.525.647 3.688a2.853 2.853 0 0 0-.714 1.884c0 2.808 1.06 5.39 2.826 7.33-.109.484-.092.996.067 1.486a10.68 10.68 0 0 0 3.175 4.818 13.098 13.098 0 0 1-4.446.23 2.821 2.821 0 0 0-2.995 1.864 2.834 2.834 0 0 0 1.134 3.34 25.18 25.18 0 0 0 13.602 3.986c15.655 0 25.063-12.6 25.232-24.899a18.765 18.765 0 0 0 3.344-3.728 2.843 2.843 0 0 0-.613-4.016zm-5.588 6.385c.018.337.025.677.025 1.018 0 10.404-7.919 22.4-22.4 22.4a22.295 22.295 0 0 1-12.07-3.537c.613.068 1.243.111 1.878.111a15.8 15.8 0 0 0 9.78-3.373 7.879 7.879 0 0 1-7.358-5.467 7.862 7.862 0 0 0 3.553-.134c-3.602-.727-6.317-3.905-6.317-7.723v-.098a7.857 7.857 0 0 0 3.567.982 7.872 7.872 0 0 1-3.5-6.554c0-1.442.388-2.793 1.066-3.956a22.341 22.341 0 0 0 16.227 8.224 7.796 7.796 0 0 1-.202-1.795 7.871 7.871 0 0 1 7.87-7.869c2.266 0 4.313.956 5.75 2.483a15.71 15.71 0 0 0 4.998-1.909 7.911 7.911 0 0 1-3.46 4.354 15.598 15.598 0 0 0 4.52-1.24 15.817 15.817 0 0 1-3.927 4.083z"/></svg>