<svg xmlns="http://www.w3.org/2000/svg" width="86" height="64" viewBox="0 0 86 64"><path d="M31.968 18.619c2.376 3.594 4.461 7.863 4.793 8.596.093.216.241.714.406 1.325 1.159-1.637 2.576-2.992 4.264-3.983 2.412-1.416 5.182-2 8.174-1.862-.724-1.146-1.38-2.327-1.699-3.244-.812-2.358-3.751-12.087-5.473-16.241-1.72-4.154-8.269-1.199-12.077.965-3.805 2.166-4.018 4.831-3.633 5.565.39.735 2.866 5.283 5.245 8.878z"/><path d="M46.562 32.009c5.06-2.088 6.143.441 6.143.441 1.607-1.483.483-3.244.483-3.244s.405-.754-.248-1.529c-.4-.472-1.693-2.181-2.825-3.977-2.992-.143-5.762.441-8.174 1.858-1.688.99-3.102 2.345-4.259 3.982.411 1.514.939 3.725 1.077 4.11.195.539.693 1.273 1.159 1.37.462.097.734.538.734.538.601 1.216 2.474 1.293 2.474 1.293s-1.628-2.76 3.437-4.843z"/><path d="M84.332 42.739c-1.549-1.211-3.625-1.795-5.28-2.869-4.276-2.776 1.265-5.332 3.097-6.984 3.115-2.807 3.931-6.04 2.643-9.971-.405-1.225-1.278-2.523-.872-1.297 2.202 6.715-4.803 9.928-8.359 13.685-1.309 1.38-1.128 2.883.231 4.264 2.632 2.669 10.555 4.921 5.645 9.077-3.443 2.905-8.785 3.167-12.598 5.625-.519.333-.575 1.226-.058 1.59 3.746 2.617 8.935 1.986 12.627 4.366-6.371 1.915-13.05.667-19.6.067.025-.186.006-.344.006-.344-.831-5.101-.919-6.208-.534-8.76.391-2.55 0-2.781 0-2.781-3.94-5.414-8.729-15.631-8.729-15.631-.636-1.057-3.169-1.509-6.296-.113-3.249 1.447-3.017 3.437-3.017 3.437l5.506 16.237c.195.524 1.084.77 1.084.77 5.16 1.488 9.365 6.702 9.927 7.512.559.816.964.503.964.503L54.7 47.646c-.456-.103-.923-.503-1.2-1.099-.4-.857-.241-1.775.354-2.052.595-.277 1.401.194 1.798 1.051.3.647.284 1.325.002 1.746l5.738 12.957a1.02 1.02 0 0 1-.123-.01c-1.283-.108.063 1.524 3.658 1.975 8.016 1.006 11.151.945 18.873-.693.793-.165.806-1.18.288-1.709-3.423-3.495-8.432-2.746-12.532-4.654 5.217-2.194 19.531-7.142 12.775-12.422zm-60.098-7.828l-5.029 2.842c.395 2.875 1.842 6.825 4.136 10.885 2.391 4.228 5.465 8.148 7.783 9.918l4.79-2.709c-.323-2.899-2.093-7.553-4.488-11.782-2.297-4.057-4.935-7.331-7.193-9.153zm8.267 24.718L37.173 64l-1.316-6.315zM.297 3.431l2.061 3.64 3.999-2.266-2.059-3.64a2.301 2.301 0 0 0-3.13-.869 2.302 2.302 0 0 0-.87 3.135zm2.161 4.575l16.091 28.459 4.88-2.764-5.517-9.761c.646.246 1.545-.241 1.278-1.094-1.996-6.428-4.887-12.676-8.77-18.193-.7-.993-2.363-.064-1.657.937.015.025.03.043.045.067l-.939.531-.531-.947-4.881 2.764zm14.587 14.405L9.938 9.842l1.149-.646c2.484 4.156 4.459 8.621 5.958 13.215z"/></svg>