<svg xmlns="http://www.w3.org/2000/svg" height="63.379" width="85.274" viewBox="0 0 85.273712 63.379066"><path d="M31.658 18.438c2.353 3.559 4.418 7.787 4.746 8.513.092.214.239.707.402 1.312 1.148-1.621 2.55-2.963 4.223-3.944 2.389-1.402 5.132-1.981 8.095-1.844-.717-1.135-1.367-2.304-1.682-3.213-.804-2.335-3.715-11.97-5.42-16.083-1.703-4.114-8.19-1.187-11.96.956-3.768 2.145-3.98 4.784-3.598 5.511.386.728 2.838 5.232 5.194 8.792z"/><path d="M46.11 31.698c5.01-2.068 6.083.437 6.083.437 1.59-1.469.478-3.212.478-3.212s.4-.747-.246-1.514c-.396-.467-1.677-2.16-2.798-3.938-2.963-.142-5.706.437-8.095 1.84-1.672.98-3.072 2.322-4.218 3.943.407 1.499.93 3.689 1.067 4.07.193.534.686 1.261 1.148 1.357.458.096.727.533.727.533.595 1.204 2.45 1.28 2.45 1.28s-1.612-2.733 3.404-4.796z"/><path d="M83.514 42.324c-1.534-1.199-3.59-1.778-5.23-2.841-4.234-2.749 1.254-5.28 3.068-6.916 3.085-2.78 3.893-5.981 2.617-9.874-.401-1.213-1.266-2.499-.864-1.284 2.18 6.65-4.756 9.832-8.278 13.552-1.296 1.367-1.117 2.855.229 4.223 2.606 2.643 10.453 4.873 5.59 8.989-3.41 2.877-8.7 3.136-12.476 5.57-.514.33-.57 1.214-.057 1.575 3.71 2.592 8.848 1.967 12.504 4.324-6.31 1.896-12.923.661-19.41.066.025-.184.006-.341.006-.341-.823-5.051-.91-6.148-.53-8.675.388-2.525 0-2.754 0-2.754-3.901-5.361-8.643-15.479-8.643-15.479-.63-1.047-3.138-1.494-6.235-.112-3.217 1.433-2.988 3.404-2.988 3.404L48.27 51.83c.193.519 1.074.763 1.074.763 5.11 1.474 9.274 6.637 9.83 7.439.555.808.956.498.956.498l-5.961-13.345c-.452-.102-.914-.498-1.188-1.088-.396-.849-.24-1.758.35-2.032s1.388.192 1.782 1.041c.297.641.28 1.312.002 1.729l5.682 12.831c-.041 0-.081-.005-.122-.01-1.271-.107.062 1.509 3.623 1.956 7.938.996 11.043.936 18.69-.686.785-.163.798-1.169.285-1.692-3.39-3.461-8.35-2.719-12.41-4.609 5.166-2.173 19.34-7.073 12.65-12.301zm-59.515-7.752l-4.98 2.814c.39 2.847 1.824 6.759 4.096 10.779 2.368 4.187 5.412 8.069 7.707 9.822l4.744-2.683c-.32-2.871-2.073-7.48-4.444-11.668-2.275-4.018-4.887-7.26-7.123-9.064zm8.187 24.478l4.627 4.329-1.303-6.254zM.294 3.398l2.04 3.605 3.96-2.244-2.038-3.605a2.28 2.28 0 0 0-3.1-.861 2.282 2.282 0 0 0-.862 3.105zm2.14 4.53l15.935 28.183 4.833-2.737-5.463-9.666c.64.244 1.53-.239 1.266-1.083-1.977-6.366-4.84-12.553-8.685-18.016-.693-.983-2.34-.063-1.641.928.015.025.03.043.045.066l-.93.526-.526-.938-4.834 2.737zM16.88 22.194L9.842 9.747l1.138-.64c2.46 4.116 4.416 8.537 5.9 13.087z"/></svg>