<?xml version="1.0" encoding="utf-8"?>
<!-- Generated by IcoMoon.io -->
<!DOCTYPE svg PUBLIC "-//W3C//DTD SVG 1.1//EN" "http://www.w3.org/Graphics/SVG/1.1/DTD/svg11.dtd">
<svg version="1.1" xmlns="http://www.w3.org/2000/svg" xmlns:xlink="http://www.w3.org/1999/xlink" width="45" height="64" viewBox="0 0 45 64">
<path fill="#000" d="M44.761 56.795c0-7.366-4.255-15.406-4.255-15.406-1.661-3.306-3.51-7.043-7.538-9.259-0.073-0.037-0.471-0.224-0.576-0.305l-4.357-1.979-1.922-1.62c2.89-1.227 5.36-3.872 6.365-7.74 0.29-0.024 0.543-0.491 0.543-1.084v-0.121c0.18-0.348 0.403-0.839 0.604-1.538 0.23-0.755 1.080-3.066 0.29-3.642-0.348-0.219-0.619-0.123-0.817 0.242 0 0 1.048-5.72 0.254-8.159-1.813-6.29-16.63-8.005-16.63-4.113-6.34 1.794-5.174 7.814-4.295 12.376 0-0.009-0.431-0.597-0.985-0.041-0.694 0.723 0.069 2.523 0.33 3.336 0.16 0.658 0.329 1.101 0.526 1.43-0.037 0.063-0.037 0.133-0.037 0.228 0 0.594 0.31 1.084 0.64 1.084h0.024c1.026 4.013 3.203 6.514 5.778 7.716l-1.981 1.644-4.322 1.979c-0.139 0.068-0.524 0.283-0.59 0.305-4.018 2.216-5.901 5.954-7.543 9.259 0 0-3.569 7.304-4.268 15.406v0.264c0 2.418 2.083 4.36 4.633 4.36 0.199 0 0.361 0 0.565-0.020 1.279-0.209 2.406-0.633 3.4-1.122l13.363 3.661c0.020 0 0.066 0.038 0.087 0.038h0.104c0.073 0.024 0.158 0.024 0.242 0.024 0.102 0 0.148 0 0.224-0.024h0.105c0.019 0 0.057-0.038 0.094-0.038l13.341-3.68c1.044 0.509 2.134 0.934 3.419 1.143 0.2 0.020 0.376 0.020 0.568 0.020 2.542 0 4.619-1.941 4.619-4.36-0.004-0.066-0.004-0.164-0.004-0.264z"></path>
</svg>
