<?xml version="1.0" encoding="UTF-8" standalone="no"?>
<svg id="svg2" xmlns:rdf="http://www.w3.org/1999/02/22-rdf-syntax-ns#" xmlns="http://www.w3.org/2000/svg" enable-background="new 0 0 100 100" xml:space="preserve" height="68.114" width="47.642" version="1.1" y="0px" x="0px" xmlns:cc="http://creativecommons.org/ns#" xmlns:dc="http://purl.org/dc/elements/1.1/" viewBox="0 0 47.641998 68.114082"><g id="g4" transform="translate(-26.182 -15.944)"><path id="path6" fill-rule="evenodd" clip-rule="evenodd" d="m73.82 76.39c0-7.84-4.529-16.396-4.529-16.396-1.768-3.518-3.736-7.496-8.022-9.854-0.078-0.039-0.501-0.238-0.613-0.325l-4.637-2.106-2.045-1.724c3.076-1.306 5.704-4.121 6.774-8.238 0.309-0.026 0.578-0.522 0.578-1.154v-0.129c0.192-0.37 0.429-0.893 0.643-1.637 0.245-0.803 1.149-3.263 0.309-3.876-0.37-0.233-0.659-0.131-0.87 0.258 0 0 1.115-6.088 0.27-8.683-1.929-6.694-17.699-8.52-17.699-4.377-6.747 1.909-5.507 8.316-4.571 13.172 0-0.01-0.459-0.635-1.048-0.044-0.739 0.769 0.073 2.685 0.351 3.55 0.17 0.7 0.35 1.172 0.56 1.522-0.039 0.067-0.039 0.141-0.039 0.243 0 0.632 0.33 1.154 0.681 1.154h0.026c1.092 4.271 3.409 6.933 6.149 8.212l-2.108 1.75-4.6 2.106c-0.148 0.072-0.558 0.301-0.628 0.325-4.276 2.358-6.28 6.337-8.028 9.854 0 0-3.798 7.774-4.542 16.396v0.281c0 2.573 2.217 4.64 4.931 4.64 0.212 0 0.384 0 0.601-0.021 1.361-0.222 2.561-0.674 3.618-1.194l14.222 3.896c0.021 0 0.07 0.041 0.093 0.041h0.111c0.078 0.026 0.168 0.026 0.258 0.026 0.109 0 0.158 0 0.238-0.026h0.112c0.02 0 0.061-0.041 0.1-0.041l14.199-3.917c1.111 0.542 2.271 0.994 3.639 1.216 0.213 0.021 0.4 0.021 0.604 0.021 2.705 0 4.916-2.066 4.916-4.64-0.004-0.07-0.004-0.175-0.004-0.281z"/></g></svg>
