<?xml version="1.0" encoding="UTF-8" standalone="no"?>
<svg id="svg2" xmlns:rdf="http://www.w3.org/1999/02/22-rdf-syntax-ns#" xmlns="http://www.w3.org/2000/svg" enable-background="new 0 0 512 512" xml:space="preserve" height="409.7" width="508" version="1.1" y="0px" x="0px" xmlns:cc="http://creativecommons.org/ns#" xmlns:dc="http://purl.org/dc/elements/1.1/" viewBox="0 0 508 409.70001"><g id="g4" transform="translate(-2,-51.2)"><path id="path6" d="m510 51.2h-508v344.1h150.6l-32.8 65.6h272.3l-32.8-65.6h150.7v-344.1zm-16.4 16.3v245.8h-475.2v-245.8h475.2zm-128 377h-219.2l24.6-49.2h170.1l24.5 49.2zm-14.4-65.6h-190.4-142.4v-49.2h475.2v49.2h-142.4z"/><rect id="rect8" height="16.4" width="16.4" y="346.1" x="247.8"/><rect id="rect10" height="16.4" width="16.4" y="346.1" x="280.6"/><rect id="rect12" height="16.4" width="16.4" y="346.1" x="215"/><path id="path14" d="m198.6 92.1h-147.4v196.6h147.5v-196.6zm-16.3 180.3h-114.8v-163.9h114.7v163.9z"/><rect id="rect16" height="16.4" width="229.4" y="108.5" x="231.4"/><rect id="rect18" height="16.4" width="229.4" y="182.3" x="231.4"/><rect id="rect20" height="16.4" width="229.4" y="256" x="231.4"/></g></svg>
