<?xml version="1.0" encoding="utf-8"?>
<!-- Generated by IcoMoon.io -->
<!DOCTYPE svg PUBLIC "-//W3C//DTD SVG 1.1//EN" "http://www.w3.org/Graphics/SVG/1.1/DTD/svg11.dtd">
<svg version="1.1" xmlns="http://www.w3.org/2000/svg" xmlns:xlink="http://www.w3.org/1999/xlink" width="79" height="64" viewBox="0 0 79 64">
<path fill="#000" d="M79.356 0h-79.356v53.752h23.526l-5.124 10.248h42.536l-5.124-10.248h23.541v-53.752zM76.794 2.546v38.397h-74.232v-38.397h74.232zM56.799 61.438h-34.242l3.843-7.686h26.572l3.827 7.686zM54.549 51.191h-51.987v-7.686h74.232v7.686h-22.245z"></path>
<path fill="#000" d="M38.397 46.067h2.562v2.562h-2.562v-2.562z"></path>
<path fill="#000" d="M43.521 46.067h2.562v2.562h-2.562v-2.562z"></path>
<path fill="#000" d="M33.273 46.067h2.562v2.562h-2.562v-2.562z"></path>
<path fill="#000" d="M30.711 6.389h-23.026v30.711h23.041v-30.711zM28.165 34.554h-17.933v-25.603h17.918v25.603z"></path>
<path fill="#000" d="M35.835 8.951h35.835v2.562h-35.835v-2.562z"></path>
<path fill="#000" d="M35.835 20.479h35.835v2.562h-35.835v-2.562z"></path>
<path fill="#000" d="M35.835 31.992h35.835v2.562h-35.835v-2.562z"></path>
</svg>
