<?xml version="1.0" encoding="UTF-8" standalone="no"?>
<svg id="svg2" xmlns:rdf="http://www.w3.org/1999/02/22-rdf-syntax-ns#" xmlns="http://www.w3.org/2000/svg" enable-background="new 0 0 64 64" xml:space="preserve" height="42" width="54" version="1.1" x="0px" y="0px" xmlns:cc="http://creativecommons.org/ns#" viewBox="0 0 54 42" xmlns:dc="http://purl.org/dc/elements/1.1/"><g id="g6" transform="translate(-5,-11)"><g id="g8"><path id="path10" d="m58 11h-52c-0.552 0-1 0.448-1 1v36c0 0.553 0.448 1 1 1h52c0.553 0 1-0.447 1-1v-36c0-0.552-0.447-1-1-1zm-1 36h-50v-34h50v34z"/><path id="path12" d="m46 51h-26c-0.552 0-1 0.447-1 1s0.448 1 1 1h26c0.553 0 1-0.447 1-1s-0.447-1-1-1z"/><path id="path14" d="m25.474 36.851c0.161 0.099 0.343 0.149 0.526 0.149 0.153 0 0.306-0.035 0.447-0.105l12-6c0.339-0.17 0.553-0.516 0.553-0.895s-0.214-0.725-0.553-0.895l-12-6c-0.31-0.154-0.678-0.139-0.973 0.044-0.294 0.183-0.474 0.504-0.474 0.851v12c0 0.347 0.18 0.668 0.474 0.851zm1.526-11.233 8.764 4.382-8.764 4.382v-8.764z"/></g></g></svg>
