<?xml version="1.0" encoding="utf-8"?>
<!-- Generated by IcoMoon.io -->
<!DOCTYPE svg PUBLIC "-//W3C//DTD SVG 1.1//EN" "http://www.w3.org/Graphics/SVG/1.1/DTD/svg11.dtd">
<svg version="1.1" xmlns="http://www.w3.org/2000/svg" xmlns:xlink="http://www.w3.org/1999/xlink" width="82" height="64" viewBox="0 0 82 64">
<path fill="#000" d="M80.762 0h-79.238c-0.841 0-1.524 0.683-1.524 1.524v54.857c0 0.843 0.683 1.524 1.524 1.524h79.238c0.843 0 1.524-0.681 1.524-1.524v-54.857c0-0.841-0.681-1.524-1.524-1.524zM79.238 54.857h-76.191v-51.809h76.191v51.809z"></path>
<path fill="#000" d="M62.476 60.952h-39.619c-0.841 0-1.524 0.681-1.524 1.524s0.683 1.524 1.524 1.524h39.619c0.843 0 1.524-0.681 1.524-1.524s-0.681-1.524-1.524-1.524z"></path>
<path fill="#000" d="M31.198 39.392c0.245 0.151 0.523 0.227 0.802 0.227 0.233 0 0.466-0.053 0.681-0.16l18.286-9.143c0.517-0.259 0.843-0.786 0.843-1.364s-0.326-1.105-0.843-1.364l-18.286-9.143c-0.472-0.235-1.033-0.212-1.483 0.067-0.448 0.279-0.722 0.768-0.722 1.297v18.286c0 0.529 0.274 1.018 0.722 1.297zM33.524 22.275l13.355 6.677-13.355 6.677v-13.355z"></path>
</svg>
