<?xml version="1.0" encoding="utf-8"?>
<!-- Generated by IcoMoon.io -->
<!DOCTYPE svg PUBLIC "-//W3C//DTD SVG 1.1//EN" "http://www.w3.org/Graphics/SVG/1.1/DTD/svg11.dtd">
<svg version="1.1" xmlns="http://www.w3.org/2000/svg" xmlns:xlink="http://www.w3.org/1999/xlink" width="34" height="64" viewBox="0 0 34 64">
<path fill="#000" d="M34.138 3.092c-0.079-0.483-0.414-0.888-0.873-1.056-2.798-1.021-6.496-2.033-10.465-2.036-3.113-0.001-6.412 0.634-9.478 2.422-1.544 0.897-2.761 2.032-3.687 3.31-1.394 1.919-2.136 4.127-2.555 6.368-0.337 1.813-0.465 3.66-0.533 5.45-0.799 0.019-1.705 0.025-2.53 0.025-0.721 0-1.382-0.004-1.862-0.009-0.24-0.003-0.434-0.004-0.569-0.006s-0.207-0.003-0.208-0.003c-0.362-0.005-0.717 0.138-0.976 0.392-0.258 0.255-0.405 0.61-0.402 0.973l0.054 9.017c0.005 0.751 0.613 1.412 1.363 1.412h0.947c1.328 0 3.806-0.057 5.711-0.020 0.282 6.194 0.348 15.476 0.348 22.679 0 3.036-0.013 5.682-0.023 7.588-0.007 0.95-0.012 1.706-0.017 2.23s-0.007 0.803-0.007 0.805c-0.003 0.362 0.138 0.711 0.395 0.969 0.256 0.256 0.606 0.4 0.969 0.398l12.069-0.061c0.363-0.002 0.704-0.147 0.959-0.406s0.395-0.602 0.391-0.966c0 0-0.063-7.421-0.137-15.426-0.063-6.884-0.133-14.19-0.173-17.592 0.745-0.013 1.612-0.018 2.456-0.017 0.986 0 1.946 0.006 2.658 0.012 0.355 0.003 0.65 0.006 0.854 0.009 0.206 0.003 0.32 0.003 0.32 0.003 0.363 0.005 0.712-0.136 0.971-0.39s0.405-0.601 0.406-0.964l0.015-8.352c0.001-0.363-0.142-0.828-0.399-1.084s-0.601-0.517-0.965-0.517h-0.451c-0.289 0-0.699 0.123-1.192 0.123-1.514 0-3.804 0.054-5.616 0.023 0.032-0.926 0.116-1.715 0.253-2.413 0.131-0.68 0.313-1.23 0.526-1.684 0.16-0.34 0.339-0.608 0.53-0.832 0.29-0.336 0.605-0.564 1.009-0.733 0.404-0.167 0.912-0.267 1.563-0.268 1.155-0.003 2.742 0.338 4.729 1.106 0.015 0.006 0.031 0.008 0.046 0.014s0.029 0.014 0.045 0.019c0.029 0.009 0.058 0.010 0.087 0.017 0.046 0.011 0.091 0.021 0.137 0.027s0.088 0.007 0.131 0.009c0.045 0.001 0.089 0.002 0.134-0.001s0.087-0.009 0.129-0.017c0.044-0.007 0.087-0.015 0.129-0.027s0.082-0.026 0.121-0.041c0.042-0.014 0.083-0.031 0.122-0.050s0.074-0.040 0.111-0.062c0.038-0.023 0.075-0.048 0.111-0.074 0.034-0.025 0.065-0.053 0.096-0.082 0.034-0.031 0.067-0.062 0.096-0.095s0.055-0.067 0.081-0.102c0.026-0.036 0.053-0.073 0.076-0.112 0.022-0.038 0.042-0.079 0.062-0.121 0.013-0.027 0.029-0.052 0.040-0.081 0.007-0.015 0.009-0.032 0.014-0.049 0.004-0.014 0.014-0.027 0.018-0.043 0.274-0.903 0.745-2.417 1.148-4.015 0.202-0.801 0.389-1.624 0.527-2.417s0.231-1.552 0.231-2.259c-0.002-0.313-0.020-0.616-0.069-0.918zM22.754 10.429c-0.672 0.348-1.258 0.838-1.727 1.428-0.706 0.888-1.16 1.977-1.446 3.216-0.285 1.242-0.407 2.649-0.407 4.235 0 0.162 0.002 0.327 0.003 0.494 0.012 0.725 0.59 1.113 1.315 1.137 1.931 0.061 5.094-0.127 7.027-0.127h0.29l-0.010 5.817c-0.694-0.005-1.581 0.089-2.497 0.089-1.446 0-2.942 0.062-3.898 0.109-0.732 0.037-1.3 0.669-1.29 1.401 0.037 2.319 0.119 10.924 0.192 18.926 0.037 4.002 0.071 7.865 0.096 10.72 0.012 1.386 0.022 2.536 0.029 3.352l-9.331 0.050c0.014-1.799 0.034-5.212 0.034-9.301 0-7.73-0.073-17.851-0.413-24.105-0.038-0.704-0.603-1.258-1.306-1.282-1.838-0.065-4.894-0.077-6.655-0.078l-0.038-6.225c0.384 0.003 0.827 0.005 1.294 0.005 1.327-0.001 2.849-0.015 3.923-0.077 0.704-0.040 1.26-0.615 1.278-1.318 0.073-2.856 0.236-5.756 0.995-8.222 0.378-1.235 0.898-2.358 1.616-3.346 0.72-0.987 1.634-1.846 2.859-2.56 2.573-1.498 5.358-2.052 8.112-2.053 3.135-0.003 6.201 0.733 8.681 1.573-0.020 0.424-0.083 0.948-0.182 1.516-0.183 1.049-0.479 2.242-0.78 3.335-0.138 0.5-0.277 0.977-0.407 1.416-1.601-0.518-3.027-0.797-4.327-0.8-1.107-0.001-2.135 0.208-3.032 0.675z"></path>
</svg>
