<?xml version="1.0" encoding="UTF-8" standalone="no"?>
<svg id="svg2" xmlns:rdf="http://www.w3.org/1999/02/22-rdf-syntax-ns#" xmlns="http://www.w3.org/2000/svg" enable-background="new 0 0 100 100" xml:space="preserve" height="74.324" width="75.746" version="1.1" y="0px" x="0px" xmlns:cc="http://creativecommons.org/ns#" xmlns:dc="http://purl.org/dc/elements/1.1/" viewBox="0 0 75.746002 74.323999"><path id="path4" d="m799.9 153.11-36.568-26.93-36.568 26.93-0.946-1.287 37.516-27.629 37.516 27.629-0.95 1.287zm-5.427 1.444-31.141-22.934-31.141 22.934v42.62h22.559v-23.053h17.162v23.053h22.561v-42.62zm-20.959 17.966h-20.362v23.053h-19.36v-40.21l29.541-21.757 29.541 21.757v40.21h-19.359l-0.001-23.053z"/><path id="path6" d="m74.086 30.146-36.213-26.668-36.213 26.668-1.66-2.255 37.873-27.891 37.873 27.891-1.66 2.255zm-4.471 0.655-31.742-23.375-31.742 23.375v43.523h23.763v-23.053h15.961v23.053h23.762l-0.002-43.523zm-20.961 17.672h-21.562v23.053h-18.159v-39.309l28.94-21.313 28.941 21.313v39.308h-18.16v-23.052z"/></svg>
