<?xml version="1.0" encoding="utf-8"?>
<!-- Generated by IcoMoon.io -->
<!DOCTYPE svg PUBLIC "-//W3C//DTD SVG 1.1//EN" "http://www.w3.org/Graphics/SVG/1.1/DTD/svg11.dtd">
<svg version="1.1" xmlns="http://www.w3.org/2000/svg" xmlns:xlink="http://www.w3.org/1999/xlink" width="64" height="64" viewBox="0 0 64 64">
<path fill="#000" d="M34.352 49.265l-7.811 7.811c-2.308 2.308-5.326 3.551-8.521 3.551s-6.214-1.243-8.521-3.551l-2.485-2.485c-2.308-2.308-3.551-5.326-3.551-8.522s1.243-6.214 3.551-8.522l10.386-10.386c4.705-4.705 12.338-4.705 17.043 0l5.060 5.060c0.71 0.71 1.775 0.71 2.485 0s0.71-1.775 0-2.485l-5.060-5.060c-6.125-6.125-15.978-6.125-22.103 0l-10.297 10.297c-2.929 2.929-4.527 6.835-4.527 11.007s1.598 8.078 4.527 11.007l2.485 2.485c2.929 2.929 6.835 4.527 11.007 4.527s8.078-1.598 11.007-4.527l7.811-7.811c0.71-0.71 0.71-1.775 0-2.485-0.621-0.621-1.775-0.621-2.485 0.089z"></path>
<path fill="#000" d="M56.987 4.527c-2.929-2.929-6.835-4.527-11.007-4.527s-8.078 1.598-11.007 4.527l-6.569 6.569c-0.71 0.71-0.71 1.775 0 2.485s1.775 0.71 2.485 0l6.569-6.569c2.308-2.308 5.326-3.551 8.521-3.551s6.214 1.243 8.522 3.551l2.485 2.485c2.308 2.308 3.551 5.326 3.551 8.522s-1.243 6.214-3.551 8.521l-9.054 9.143c-2.308 2.308-5.326 3.551-8.522 3.551s-6.214-1.243-8.521-3.551l-5.060-5.060c-0.71-0.71-1.775-0.71-2.485 0s-0.71 1.775 0 2.485l5.060 5.060c2.929 2.929 6.835 4.527 11.007 4.527s8.078-1.598 11.007-4.527l9.054-9.054c2.929-2.929 4.527-6.835 4.527-11.007s-1.598-8.078-4.527-11.007l-2.485-2.574z"></path>
</svg>
