<?xml version="1.0" encoding="UTF-8" standalone="no"?>
<svg id="svg2" xmlns:rdf="http://www.w3.org/1999/02/22-rdf-syntax-ns#" xmlns="http://www.w3.org/2000/svg" xml:space="preserve" height="72.1" width="72.1" version="1.1" y="0px" x="0px" xmlns:cc="http://creativecommons.org/ns#" xmlns:dc="http://purl.org/dc/elements/1.1/" viewBox="0 0 72.099998 72.099998"><g id="g4" transform="translate(-14.1,-13)"><path id="path6" d="m52.8 68.5-8.8 8.8c-2.6 2.6-6 4-9.6 4s-7-1.4-9.6-4l-2.8-2.8c-2.6-2.6-4-6-4-9.6s1.4-7 4-9.6l11.7-11.7c5.3-5.3 13.9-5.3 19.2 0l5.7 5.7c0.8 0.8 2 0.8 2.8 0s0.8-2 0-2.8l-5.7-5.7c-6.9-6.9-18-6.9-24.9 0l-11.6 11.6c-3.3 3.3-5.1 7.7-5.1 12.4s1.8 9.1 5.1 12.4l2.8 2.8c3.3 3.3 7.7 5.1 12.4 5.1s9.1-1.8 12.4-5.1l8.8-8.8c0.8-0.8 0.8-2 0-2.8-0.7-0.7-2-0.7-2.8 0.1z"/><path id="path8" d="m78.3 18.1c-3.3-3.3-7.7-5.1-12.4-5.1s-9.1 1.8-12.4 5.1l-7.4 7.4c-0.8 0.8-0.8 2 0 2.8s2 0.8 2.8 0l7.4-7.4c2.6-2.6 6-4 9.6-4s7 1.4 9.6 4l2.8 2.8c2.6 2.6 4 6 4 9.6s-1.4 7-4 9.6l-10.2 10.3c-2.6 2.6-6 4-9.6 4s-7-1.4-9.6-4l-5.7-5.7c-0.8-0.8-2-0.8-2.8 0s-0.8 2 0 2.8l5.7 5.7c3.3 3.3 7.7 5.1 12.4 5.1s9.1-1.8 12.4-5.1l10.2-10.2c3.3-3.3 5.1-7.7 5.1-12.4s-1.8-9.1-5.1-12.4l-2.8-2.9z"/></g></svg>
