<?xml version="1.0" encoding="utf-8"?>
<!-- Generated by IcoMoon.io -->
<!DOCTYPE svg PUBLIC "-//W3C//DTD SVG 1.1//EN" "http://www.w3.org/Graphics/SVG/1.1/DTD/svg11.dtd">
<svg version="1.1" xmlns="http://www.w3.org/2000/svg" xmlns:xlink="http://www.w3.org/1999/xlink" width="64" height="64" viewBox="0 0 64 64">
<path d="M58 0h-52c-3.3 0-6 2.7-6 6v52c0 3.3 2.7 6 6 6h52c3.3 0 6-2.7 6-6v-52c0-3.3-2.7-6-6-6zM24 52h-8v-28h8v28zM20 20c-2.212 0-4-1.788-4-4s1.788-4 4-4c2.212 0 4 1.787 4 4s-1.788 4-4 4zM52 52h-8v-16c0-2.212-1.788-4-4-4s-4 1.788-4 4v16h-8v-28h8v4.962c1.65-2.262 4.175-4.962 7-4.962 4.975 0 9 4.475 9 10v18z"></path>
</svg>
