<?xml version="1.0" encoding="utf-8"?>
<!-- Generated by IcoMoon.io -->
<!DOCTYPE svg PUBLIC "-//W3C//DTD SVG 1.1//EN" "http://www.w3.org/Graphics/SVG/1.1/DTD/svg11.dtd">
<svg version="1.1" xmlns="http://www.w3.org/2000/svg" xmlns:xlink="http://www.w3.org/1999/xlink" width="56" height="32" viewBox="0 0 56 32">
<path fill="#000" d="M1.629 1.794h53.272c0.463 0 0.772-0.309 0.772-0.772s-0.309-0.772-0.772-0.772h-53.272c-0.463 0-0.772 0.309-0.772 0.772s0.386 0.772 0.772 0.772z"></path>
<path fill="#000" d="M54.978 15.228h-53.272c-0.463 0-0.772 0.309-0.772 0.772s0.309 0.772 0.772 0.772h53.272c0.463 0 0.772-0.309 0.772-0.772s-0.386-0.772-0.772-0.772z"></path>
<path fill="#000" d="M54.978 30.206h-53.272c-0.463 0-0.772 0.309-0.772 0.772s0.309 0.772 0.772 0.772h53.272c0.463 0 0.772-0.309 0.772-0.772s-0.386-0.772-0.772-0.772z"></path>
</svg>
