<?xml version="1.0" encoding="UTF-8" standalone="no"?>
<svg id="svg2" xmlns:rdf="http://www.w3.org/1999/02/22-rdf-syntax-ns#" xmlns="http://www.w3.org/2000/svg" height="86.053" width="86.112" version="1.1" y="0px" x="0px" xmlns:cc="http://creativecommons.org/ns#" xmlns:dc="http://purl.org/dc/elements/1.1/" viewBox="0 0 86.112381 86.053421">
<g id="g4" transform="translate(-6.9019 -959.32)">
<path id="path6" style="color:#000000;text-indent:0;block-progression:tb;text-decoration-line:none;text-transform:none" d="m49.875 6.9688a1.0001 1.0001 0 0 0 -0.875 1.0312v41h-41a1.0001 1.0001 0 0 0 -0.1875 0 1.0044 1.0044 0 0 0 0.1875 2h41v41a1.0001 1.0001 0 1 0 2 0v-41h41a1.0001 1.0001 0 1 0 0 -2h-41v-41a1.0001 1.0001 0 0 0 -1.125 -1.0312z" transform="translate(0 952.36)"/>
</g>
</svg>
