<?xml version="1.0" encoding="utf-8"?>
<!-- Generated by IcoMoon.io -->
<!DOCTYPE svg PUBLIC "-//W3C//DTD SVG 1.1//EN" "http://www.w3.org/Graphics/SVG/1.1/DTD/svg11.dtd">
<svg version="1.1" xmlns="http://www.w3.org/2000/svg" xmlns:xlink="http://www.w3.org/1999/xlink" width="64" height="64" viewBox="0 0 64 64">
<path fill="#000" d="M31.96 0.006c-0.369 0.048-0.651 0.36-0.651 0.738 0 0.010 0 0.020 0.001 0.030l-0 30.491h-30.493c-0.021-0.002-0.045-0.003-0.070-0.003s-0.049 0.001-0.073 0.003c-0.377 0.039-0.67 0.357-0.67 0.743 0 0.413 0.334 0.747 0.747 0.747 0.023 0 0.046-0.001 0.069-0.003l30.49 0v30.493c-0 0.003-0 0.007-0 0.011 0 0.411 0.333 0.744 0.744 0.744s0.744-0.333 0.744-0.744c0-0.004 0-0.007-0-0.011v-30.492h30.493c0.003 0 0.007 0 0.011 0 0.411 0 0.744-0.333 0.744-0.744s-0.333-0.744-0.744-0.744c-0.004 0-0.007 0-0.011 0h-30.492v-30.493c0-0.009 0.001-0.019 0.001-0.029 0-0.411-0.333-0.744-0.744-0.744-0.033 0-0.065 0.002-0.097 0.006z"></path>
</svg>
