<?xml version="1.0" encoding="utf-8"?>
<!-- Generated by IcoMoon.io -->
<!DOCTYPE svg PUBLIC "-//W3C//DTD SVG 1.1//EN" "http://www.w3.org/Graphics/SVG/1.1/DTD/svg11.dtd">
<svg version="1.1" xmlns="http://www.w3.org/2000/svg" xmlns:xlink="http://www.w3.org/1999/xlink" width="64" height="64" viewBox="0 0 64 64">
<path fill="#000" d="M52.693 64c-0.071-28.729-25.102-52.124-52.693-52.196v-11.804c33.849 0 64 28.8 64 64h-11.307zM42.951 64h-11.307c0.071-7.040-3.556-14.933-9.244-20.836-5.618-5.973-15.644-9.742-22.4-9.671v-11.804c21.12 0.498 42.524 20.409 42.951 42.311zM8.036 48c4.409 0 7.964 3.556 7.964 7.964s-3.556 7.964-7.964 7.964c-4.409 0.071-8.036-3.556-8.036-7.964s3.627-7.964 8.036-7.964z"></path>
</svg>
