<?xml version="1.0" encoding="UTF-8" standalone="no"?>
<svg id="svg2" xmlns:rdf="http://www.w3.org/1999/02/22-rdf-syntax-ns#" xmlns="http://www.w3.org/2000/svg" xml:space="preserve" height="90" width="90" version="1.1" y="0px" x="0px" xmlns:cc="http://creativecommons.org/ns#" xmlns:dc="http://purl.org/dc/elements/1.1/" viewBox="0 0 90 90"><g id="g4" transform="translate(-5,-5)"><path id="path6" fill-rule="evenodd" clip-rule="evenodd" d="m79.1 95c-0.1-40.4-35.3-73.3-74.1-73.4v-16.6c47.6 0 90 40.5 90 90h-15.9zm-13.7 0h-15.9c0.1-9.9-5-21-13-29.3-7.9-8.4-22-13.7-31.5-13.6v-16.6c29.7 0.7 59.8 28.7 60.4 59.5zm-49.1-22.5c6.2 0 11.2 5 11.2 11.2s-5 11.2-11.2 11.2c-6.2 0.1-11.3-5-11.3-11.2s5.1-11.2 11.3-11.2z"/></g></svg>
