<?xml version="1.0" encoding="UTF-8" standalone="no"?>
<svg id="svg2" xmlns:rdf="http://www.w3.org/1999/02/22-rdf-syntax-ns#" xmlns="http://www.w3.org/2000/svg" xml:space="preserve" height="17.367" width="20.75" version="1.1" y="0px" x="0px" xmlns:cc="http://creativecommons.org/ns#" xmlns:dc="http://purl.org/dc/elements/1.1/" viewBox="0 0 20.75 17.367001"><g id="g4" transform="translate(-1.625,-3.317)"><path id="path6" d="m20.646 3.749h-0.401c-0.693 0-1.345 0.27-1.834 0.76l-1.655 1.655-0.559-0.559-0.611 0.611 1.729 1.729 0.611-0.611-0.559-0.559 1.655-1.655c0.326-0.327 0.761-0.507 1.223-0.507h0.401c0.477 0 0.865 0.388 0.865 0.865v0.865c0 0.477-0.388 0.865-0.865 0.865v0.865c0.953 0 1.729-0.776 1.729-1.729v-0.866c0-0.953-0.776-1.729-1.729-1.729z"/><path id="path8" d="m18.611 6.649 0.738 0.738v3.428c0 0.347-0.135 0.673-0.38 0.917l-7.961 7.96c-0.163 0.164-0.448 0.164-0.611 0l-6.558-6.559c-0.168-0.168-0.168-0.443 0-0.611l7.96-7.96c0.241-0.241 0.576-0.38 0.917-0.38h3.428l0.738 0.738 0.611-0.611-0.991-0.991h-3.786c-0.577 0-1.12 0.225-1.528 0.633l-7.961 7.96c-0.505 0.506-0.505 1.328 0 1.834l6.558 6.559c0.245 0.245 0.571 0.38 0.917 0.38s0.672-0.135 0.917-0.38l7.96-7.96c0.408-0.408 0.633-0.951 0.633-1.529v-3.786l-0.991-0.991-0.61 0.611z"/><path id="path10" d="m3.717 10.863-1.136-1.751c-0.113-0.21-0.033-0.473 0.172-0.583l5.988-3.099-0.398-0.768-5.992 3.102c-0.306 0.163-0.53 0.436-0.63 0.768-0.101 0.331-0.066 0.682 0.115 1.019l1.155 1.782 0.726-0.47z"/><path id="path12" d="m2.49 4.614c0-0.239 0.194-0.432 0.432-0.432h7.349v-0.865h-7.349c-0.715 0-1.297 0.582-1.297 1.297v2.594h0.865v-2.594z"/></g></svg>
