<?xml version="1.0" encoding="utf-8"?>
<!-- Generated by IcoMoon.io -->
<!DOCTYPE svg PUBLIC "-//W3C//DTD SVG 1.1//EN" "http://www.w3.org/Graphics/SVG/1.1/DTD/svg11.dtd">
<svg version="1.1" xmlns="http://www.w3.org/2000/svg" xmlns:xlink="http://www.w3.org/1999/xlink" width="76" height="64" viewBox="0 0 76 64">
<path fill="#000" d="M70.095 1.592h-1.478c-2.554 0-4.956 0.995-6.759 2.801l-6.099 6.099-2.060-2.060-2.252 2.252 6.372 6.372 2.252-2.252-2.060-2.060 6.099-6.099c1.201-1.205 2.804-1.868 4.507-1.868h1.478c1.758 0 3.188 1.43 3.188 3.188v3.188c0 1.758-1.43 3.188-3.188 3.188v3.188c3.512 0 6.372-2.86 6.372-6.372v-3.191c0-3.512-2.86-6.372-6.372-6.372z"></path>
<path fill="#000" d="M62.596 12.279l2.72 2.72v12.633c0 1.279-0.498 2.48-1.4 3.379l-29.337 29.334c-0.601 0.604-1.651 0.604-2.252 0l-24.167-24.171c-0.619-0.619-0.619-1.633 0-2.252l29.334-29.334c0.888-0.888 2.123-1.4 3.379-1.4h12.633l2.72 2.72 2.252-2.252-3.652-3.652h-13.952c-2.126 0-4.127 0.829-5.631 2.333l-29.337 29.334c-1.861 1.865-1.861 4.894 0 6.759l24.167 24.171c0.903 0.903 2.104 1.4 3.379 1.4s2.476-0.498 3.379-1.4l29.334-29.334c1.504-1.504 2.333-3.505 2.333-5.635v-13.952l-3.652-3.652-2.248 2.252z"></path>
<path fill="#000" d="M7.709 27.808l-4.186-6.453c-0.416-0.774-0.122-1.743 0.634-2.148l22.067-11.42-1.467-2.83-22.081 11.431c-1.128 0.601-1.953 1.607-2.322 2.83-0.372 1.22-0.243 2.513 0.424 3.755l4.256 6.567 2.675-1.732z"></path>
<path fill="#000" d="M3.188 4.78c0-0.881 0.715-1.592 1.592-1.592h27.082v-3.188h-27.082c-2.635 0-4.78 2.145-4.78 4.78v9.559h3.188v-9.559z"></path>
</svg>
