<?xml version="1.0" encoding="utf-8"?>
<!-- Generated by IcoMoon.io -->
<!DOCTYPE svg PUBLIC "-//W3C//DTD SVG 1.1//EN" "http://www.w3.org/Graphics/SVG/1.1/DTD/svg11.dtd">
<svg version="1.1" xmlns="http://www.w3.org/2000/svg" xmlns:xlink="http://www.w3.org/1999/xlink" width="64" height="64" viewBox="0 0 64 64">
<path d="M32 0c-17.675 0-32 14.325-32 32s14.325 32 32 32 32-14.325 32-32-14.325-32-32-32zM47.725 21.938l-5.25 24.737c-0.362 1.763-1.425 2.175-2.9 1.362l-8-5.913-3.837 3.737c-0.45 0.438-0.8 0.8-1.6 0.8-1.038 0-0.863-0.388-1.212-1.375l-2.725-8.95-7.912-2.462c-1.713-0.525-1.725-1.7 0.387-2.538l30.825-11.9c1.4-0.637 2.763 0.337 2.225 2.5z"></path>
</svg>
