<?xml version="1.0" encoding="UTF-8" standalone="no"?>
<svg id="svg2" xmlns:rdf="http://www.w3.org/1999/02/22-rdf-syntax-ns#" xmlns="http://www.w3.org/2000/svg" enable-background="new 0 0 50 50" xml:space="preserve" height="36.859" width="44.051" version="1.1" y="0px" x="0px" xmlns:cc="http://creativecommons.org/ns#" xmlns:dc="http://purl.org/dc/elements/1.1/" viewBox="0 0 44.051224 36.859001"><g id="g4" transform="translate(-3.0138 -7.2)"><path id="path6" d="m45.88 11.416c0.327-1.106-0.047-2.302-0.953-3.022-0.514-0.411-1.136-0.618-1.767-0.618-0.498 0-0.996 0.13-1.443 0.397-0.888 0.521-1.817 0.939-2.787 1.234-1.854-1.418-4.153-2.207-6.516-2.207-5.416 0-9.903 4.04-10.61 9.264-4.318-0.924-8.252-3.303-11.086-6.779-0.54-0.666-1.35-1.046-2.196-1.046-0.071 0-0.146 0.005-0.222 0.01-0.928 0.073-1.757 0.596-2.226 1.398-0.952 1.631-1.453 3.491-1.453 5.386 0 1.28 0.227 2.525 0.647 3.688-0.452 0.514-0.714 1.18-0.714 1.884 0 2.808 1.06 5.39 2.826 7.33-0.109 0.484-0.092 0.996 0.067 1.486 0.611 1.914 1.729 3.561 3.175 4.818-0.939 0.213-1.911 0.322-2.897 0.322-0.511 0-1.028-0.033-1.549-0.092-0.11-0.014-0.22-0.021-0.332-0.021-1.186 0-2.26 0.742-2.663 1.885-0.447 1.24 0.026 2.627 1.134 3.34 4.071 2.607 8.775 3.986 13.602 3.986 15.655 0 25.063-12.6 25.232-24.899 1.274-1.085 2.394-2.334 3.344-3.728 0.359-0.474 0.572-1.063 0.572-1.708 0-0.949-0.468-1.791-1.185-2.308zm-5.588 6.385c0.018 0.337 0.025 0.677 0.025 1.018 0 10.404-7.919 22.4-22.4 22.4-4.445 0-8.584-1.303-12.07-3.537 0.613 0.068 1.243 0.111 1.878 0.111 3.689 0 7.083-1.26 9.779-3.373-3.449-0.061-6.354-2.34-7.357-5.467 0.481 0.092 0.975 0.143 1.478 0.143 0.72 0 1.416-0.098 2.075-0.277-3.602-0.727-6.317-3.905-6.317-7.723v-0.098c1.062 0.588 2.277 0.942 3.567 0.982-2.112-1.412-3.5-3.824-3.5-6.554 0-1.442 0.388-2.793 1.066-3.956 3.88 4.763 9.683 7.896 16.227 8.224-0.136-0.574-0.202-1.178-0.202-1.795 0-4.344 3.524-7.869 7.87-7.869 2.266 0 4.313 0.956 5.749 2.483 1.791-0.351 3.478-1.006 4.999-1.909-0.589 1.837-1.838 3.38-3.461 4.354 1.591-0.188 3.106-0.611 4.52-1.24-1.053 1.587-2.386 2.973-3.926 4.083z"/></g></svg>
