<?xml version="1.0" encoding="utf-8"?>
<!-- Generated by IcoMoon.io -->
<!DOCTYPE svg PUBLIC "-//W3C//DTD SVG 1.1//EN" "http://www.w3.org/Graphics/SVG/1.1/DTD/svg11.dtd">
<svg version="1.1" xmlns="http://www.w3.org/2000/svg" xmlns:xlink="http://www.w3.org/1999/xlink" width="77" height="64" viewBox="0 0 77 64">
<path fill="#000" d="M74.43 7.321c0.568-1.92-0.082-3.997-1.655-5.247-0.892-0.714-1.972-1.073-3.068-1.073-0.865 0-1.729 0.226-2.506 0.689-1.542 0.905-3.155 1.63-4.839 2.143-3.219-2.462-7.211-3.832-11.314-3.832-9.404 0-17.195 7.015-18.423 16.085-7.497-1.604-14.328-5.735-19.249-11.771-0.938-1.156-2.344-1.816-3.813-1.816-0.123 0-0.254 0.009-0.385 0.017-1.611 0.127-3.051 1.035-3.865 2.427-1.653 2.832-2.523 6.062-2.523 9.352 0 2.223 0.394 4.384 1.123 6.404-0.785 0.892-1.24 2.049-1.24 3.271 0 4.876 1.841 9.359 4.907 12.727-0.189 0.84-0.16 1.729 0.116 2.58 1.061 3.323 3.002 6.183 5.513 8.366-1.63 0.37-3.318 0.559-5.030 0.559-0.887 0-1.785-0.057-2.69-0.16-0.191-0.024-0.382-0.036-0.576-0.036-2.059 0-3.924 1.288-4.624 3.273-0.776 2.153 0.045 4.561 1.969 5.799 7.069 4.527 15.236 6.921 23.618 6.921 27.182 0 43.518-21.878 43.811-43.233 2.212-1.884 4.157-4.053 5.806-6.473 0.623-0.823 0.993-1.846 0.993-2.966 0-1.648-0.813-3.11-2.058-4.007zM64.728 18.407c0.031 0.585 0.043 1.175 0.043 1.768 0 18.065-13.75 38.894-38.894 38.894-7.718 0-14.905-2.262-20.958-6.141 1.064 0.118 2.158 0.193 3.261 0.193 6.405 0 12.299-2.188 16.98-5.857-5.989-0.106-11.033-4.063-12.774-9.493 0.835 0.16 1.693 0.248 2.566 0.248 1.25 0 2.459-0.17 3.603-0.481-6.254-1.262-10.968-6.78-10.968-13.41v-0.17c1.844 1.021 3.954 1.636 6.194 1.705-3.667-2.452-6.077-6.64-6.077-11.38 0-2.504 0.674-4.85 1.851-6.869 6.737 8.27 16.813 13.71 28.176 14.28-0.236-0.997-0.351-2.045-0.351-3.117 0-7.543 6.119-13.663 13.665-13.663 3.935 0 7.489 1.66 9.982 4.311 3.11-0.609 6.039-1.747 8.68-3.315-1.023 3.19-3.191 5.869-6.009 7.56 2.762-0.326 5.393-1.061 7.848-2.153-1.828 2.756-4.143 5.162-6.817 7.089z"></path>
</svg>
