<?xml version="1.0" encoding="UTF-8" standalone="no"?>
<svg id="svg2" xmlns:rdf="http://www.w3.org/1999/02/22-rdf-syntax-ns#" xmlns="http://www.w3.org/2000/svg" enable-background="new 0 0 90 90" xml:space="preserve" height="63.379" width="85.274" version="1.1" y="0px" x="0px" xmlns:cc="http://creativecommons.org/ns#" xmlns:dc="http://purl.org/dc/elements/1.1/" viewBox="0 0 85.273712 63.379066"><g id="g4" transform="translate(-2.3631 -13.31)"><path id="path6" d="m34.021 31.748c2.353 3.559 4.418 7.787 4.746 8.513 0.092 0.214 0.239 0.707 0.402 1.312 1.148-1.621 2.551-2.963 4.223-3.944 2.389-1.402 5.132-1.981 8.095-1.844-0.717-1.135-1.367-2.304-1.682-3.213-0.804-2.335-3.715-11.97-5.42-16.083-1.703-4.114-8.189-1.187-11.96 0.956-3.768 2.145-3.979 4.784-3.598 5.511 0.386 0.728 2.838 5.232 5.194 8.792z"/><path id="path8" d="m48.473 45.008c5.011-2.068 6.083 0.437 6.083 0.437 1.591-1.469 0.478-3.212 0.478-3.212s0.401-0.747-0.246-1.514c-0.396-0.467-1.677-2.16-2.798-3.938-2.963-0.142-5.706 0.437-8.095 1.84-1.672 0.98-3.072 2.322-4.218 3.943 0.407 1.499 0.93 3.689 1.067 4.07 0.193 0.534 0.686 1.261 1.148 1.357 0.458 0.096 0.727 0.533 0.727 0.533 0.595 1.204 2.45 1.28 2.45 1.28s-1.612-2.733 3.404-4.796z"/><path id="path10" d="m85.877 55.634c-1.534-1.199-3.59-1.778-5.229-2.841-4.235-2.749 1.253-5.28 3.067-6.916 3.085-2.78 3.893-5.981 2.617-9.874-0.401-1.213-1.266-2.499-0.864-1.284 2.181 6.65-4.756 9.832-8.278 13.552-1.296 1.367-1.117 2.855 0.229 4.223 2.606 2.643 10.453 4.873 5.59 8.989-3.41 2.877-8.7 3.136-12.476 5.57-0.514 0.33-0.569 1.214-0.057 1.575 3.71 2.592 8.848 1.967 12.504 4.324-6.309 1.896-12.923 0.661-19.41 0.066 0.025-0.184 0.006-0.341 0.006-0.341-0.823-5.051-0.91-6.148-0.529-8.675 0.387-2.525 0-2.754 0-2.754-3.902-5.361-8.644-15.479-8.644-15.479-0.63-1.047-3.138-1.494-6.235-0.112-3.217 1.433-2.988 3.404-2.988 3.404l5.453 16.079c0.193 0.519 1.074 0.763 1.074 0.763 5.11 1.474 9.274 6.637 9.831 7.439 0.554 0.808 0.955 0.498 0.955 0.498l-5.961-13.345c-0.452-0.102-0.914-0.498-1.188-1.088-0.396-0.849-0.239-1.758 0.351-2.032 0.589-0.274 1.387 0.192 1.781 1.041 0.297 0.641 0.281 1.312 0.002 1.729l5.682 12.831c-0.041 0-0.081-0.005-0.122-0.01-1.271-0.107 0.062 1.509 3.623 1.956 7.938 0.996 11.043 0.936 18.69-0.686 0.785-0.163 0.798-1.169 0.285-1.692-3.39-3.461-8.35-2.719-12.41-4.609 5.166-2.173 19.341-7.073 12.651-12.301z"/></g><g id="g12" transform="translate(-2.3631 -13.31)"><path id="path14" d="m26.362 47.882-4.98 2.814c0.391 2.847 1.824 6.759 4.096 10.779 2.368 4.187 5.412 8.069 7.707 9.822l4.744-2.683c-0.32-2.871-2.073-7.48-4.444-11.668-2.275-4.018-4.887-7.26-7.123-9.064z"/><polygon id="polygon16" points="34.549 72.36 39.176 76.689 37.873 70.435"/><path id="path18" d="m2.657 16.708 2.041 3.605 3.96-2.244-2.039-3.605c-0.619-1.092-2.005-1.476-3.1-0.861-1.093 0.615-1.479 2.009-0.862 3.105z"/><path id="path20" d="m4.797 21.238 15.935 28.183 4.833-2.737-5.463-9.666c0.64 0.244 1.53-0.239 1.266-1.083-1.977-6.366-4.84-12.553-8.685-18.016-0.693-0.983-2.34-0.063-1.641 0.928 0.015 0.025 0.03 0.043 0.045 0.066l-0.93 0.526-0.526-0.938-4.834 2.737zm14.446 14.266-7.038-12.447 1.138-0.64c2.46 4.116 4.416 8.537 5.9 13.087z"/></g></svg>
