<?xml version="1.0" encoding="utf-8"?>
<!-- Generated by IcoMoon.io -->
<!DOCTYPE svg PUBLIC "-//W3C//DTD SVG 1.1//EN" "http://www.w3.org/Graphics/SVG/1.1/DTD/svg11.dtd">
<svg version="1.1" xmlns="http://www.w3.org/2000/svg" xmlns:xlink="http://www.w3.org/1999/xlink" width="86" height="64" viewBox="0 0 86 64">
<path fill="#000" d="M31.968 18.619c2.376 3.594 4.461 7.863 4.793 8.596 0.093 0.216 0.241 0.714 0.406 1.325 1.159-1.637 2.576-2.992 4.264-3.983 2.412-1.416 5.182-2 8.174-1.862-0.724-1.146-1.38-2.327-1.699-3.244-0.812-2.358-3.751-12.087-5.473-16.241-1.72-4.154-8.269-1.199-12.077 0.965-3.805 2.166-4.018 4.831-3.633 5.565 0.39 0.735 2.866 5.283 5.245 8.878z"></path>
<path fill="#000" d="M46.562 32.009c5.060-2.088 6.143 0.441 6.143 0.441 1.607-1.483 0.483-3.244 0.483-3.244s0.405-0.754-0.248-1.529c-0.4-0.472-1.693-2.181-2.825-3.977-2.992-0.143-5.762 0.441-8.174 1.858-1.688 0.99-3.102 2.345-4.259 3.982 0.411 1.514 0.939 3.725 1.077 4.11 0.195 0.539 0.693 1.273 1.159 1.37 0.462 0.097 0.734 0.538 0.734 0.538 0.601 1.216 2.474 1.293 2.474 1.293s-1.628-2.76 3.437-4.843z"></path>
<path fill="#000" d="M84.332 42.739c-1.549-1.211-3.625-1.795-5.28-2.869-4.276-2.776 1.265-5.332 3.097-6.984 3.115-2.807 3.931-6.040 2.643-9.971-0.405-1.225-1.278-2.523-0.872-1.297 2.202 6.715-4.803 9.928-8.359 13.685-1.309 1.38-1.128 2.883 0.231 4.264 2.632 2.669 10.555 4.921 5.645 9.077-3.443 2.905-8.785 3.167-12.598 5.625-0.519 0.333-0.575 1.226-0.058 1.59 3.746 2.617 8.935 1.986 12.627 4.366-6.371 1.915-13.050 0.667-19.6 0.067 0.025-0.186 0.006-0.344 0.006-0.344-0.831-5.101-0.919-6.208-0.534-8.76 0.391-2.55 0-2.781 0-2.781-3.94-5.414-8.729-15.631-8.729-15.631-0.636-1.057-3.169-1.509-6.296-0.113-3.249 1.447-3.017 3.437-3.017 3.437l5.506 16.237c0.195 0.524 1.084 0.77 1.084 0.77 5.16 1.488 9.365 6.702 9.927 7.512 0.559 0.816 0.964 0.503 0.964 0.503l-6.019-13.476c-0.456-0.103-0.923-0.503-1.2-1.099-0.4-0.857-0.241-1.775 0.354-2.052 0.595-0.277 1.401 0.194 1.798 1.051 0.3 0.647 0.284 1.325 0.002 1.746l5.738 12.957c-0.041 0-0.082-0.005-0.123-0.010-1.283-0.108 0.063 1.524 3.658 1.975 8.016 1.006 11.151 0.945 18.873-0.693 0.793-0.165 0.806-1.18 0.288-1.709-3.423-3.495-8.432-2.746-12.532-4.654 5.217-2.194 19.531-7.142 12.775-12.422z"></path>
<path fill="#000" d="M24.234 34.911l-5.029 2.842c0.395 2.875 1.842 6.825 4.136 10.885 2.391 4.228 5.465 8.148 7.783 9.918l4.79-2.709c-0.323-2.899-2.093-7.553-4.488-11.782-2.297-4.057-4.935-7.331-7.193-9.153z"></path>
<path fill="#000" d="M32.501 59.629l4.672 4.371-1.316-6.315z"></path>
<path fill="#000" d="M0.297 3.431l2.061 3.64 3.999-2.266-2.059-3.64c-0.625-1.103-2.025-1.49-3.13-0.869-1.104 0.621-1.494 2.029-0.87 3.135z"></path>
<path fill="#000" d="M2.458 8.006l16.091 28.459 4.88-2.764-5.517-9.761c0.646 0.246 1.545-0.241 1.278-1.094-1.996-6.428-4.887-12.676-8.77-18.193-0.7-0.993-2.363-0.064-1.657 0.937 0.015 0.025 0.030 0.043 0.045 0.067l-0.939 0.531-0.531-0.947-4.881 2.764zM17.045 22.411l-7.107-12.569 1.149-0.646c2.484 4.156 4.459 8.621 5.958 13.215z"></path>
</svg>
