<?xml version="1.0" encoding="utf-8"?>
<!-- Generated by IcoMoon.io -->
<!DOCTYPE svg PUBLIC "-//W3C//DTD SVG 1.1//EN" "http://www.w3.org/Graphics/SVG/1.1/DTD/svg11.dtd">
<svg version="1.1" xmlns="http://www.w3.org/2000/svg" xmlns:xlink="http://www.w3.org/1999/xlink" width="64" height="64" viewBox="0 0 64 64">
<path d="M63.362 19.2c0 0-0.625-4.412-2.55-6.35-2.438-2.55-5.163-2.563-6.413-2.713-8.95-0.65-22.387-0.65-22.387-0.65h-0.025c0 0-13.438 0-22.387 0.65-1.25 0.15-3.975 0.162-6.412 2.713-1.925 1.938-2.538 6.35-2.538 6.35s-0.637 5.175-0.637 10.363v4.85c0 5.175 0.637 10.363 0.637 10.363s0.625 4.413 2.538 6.35c2.438 2.55 5.638 2.462 7.063 2.737 5.125 0.487 21.762 0.638 21.762 0.638s13.45-0.025 22.4-0.663c1.25-0.15 3.975-0.163 6.413-2.712 1.925-1.938 2.55-6.35 2.55-6.35s0.638-5.175 0.638-10.362v-4.85c-0.013-5.175-0.65-10.363-0.65-10.363zM25.387 40.3v-17.988l17.287 9.025-17.288 8.962z"></path>
</svg>
